<svg xmlns="http://www.w3.org/2000/svg" xmlns:xlink="http://www.w3.org/1999/xlink" id="Capa_1" x="0px" y="0px" viewBox="0 0 512 512" style="enable-background:new 0 0 512 512;" xml:space="preserve">
<g>
	<g>
		<circle cx="256" cy="136" r="15"></circle>
	</g>
</g>
<g>
	<g>
		<path d="M488.446,382.146c-15.482-22.676-37.229-39.829-62.929-49.619l-81.219-30.666c-1.148-0.433-2.344-0.711-3.559-0.853    C371.373,276.238,391,238.371,391,196v-60v-30C391,47.551,343.897,0,286,0h-60c-57.897,0-105,47.551-105,106v30v60    c0,42.306,19.567,80.123,50.119,104.894H171c-1.783,0-3.552,0.318-5.224,0.939l-80.567,29.933    c-0.116,0.043-0.231,0.088-0.347,0.134c-25.148,10.059-46.467,27.231-61.651,49.66S0,430.159,0,457.244V497    c0,8.284,6.716,15,15,15h482c8.284,0,15-6.716,15-15v-38.302C512,431.185,503.855,404.713,488.446,382.146z M361,178.42    c-12.764-4.527-22.893-14.656-27.42-27.42H361V178.42z M151,106c0-41.907,33.645-76,75-76h60c41.355,0,75,34.093,75,76v15h-31.509    C322.522,86.808,292.219,61,256,61s-66.522,25.808-73.491,60H151V106z M301,136c0,24.813-20.187,45-45,45s-45-20.187-45-45    s20.187-45,45-45S301,111.187,301,136z M151,151h27.42c-4.527,12.764-14.656,22.893-27.42,27.42V151z M151.839,209.302    c17.932-3.872,33.503-14.163,44.161-28.354C209.695,199.182,231.492,211,256,211s46.305-11.818,60-30.052    c10.658,14.191,26.229,24.482,44.161,28.354c-6.368,50.15-48.251,89.37-99.565,91.592h-9.193    C200.09,298.672,158.207,259.452,151.839,209.302z M323.754,330.894l-15.333,30.173c-0.435-0.038-0.873-0.066-1.317-0.066H204.896    c-0.445,0-0.882,0.029-1.317,0.066l-15.333-30.173h62.642c1.697,0.063,3.4,0.106,5.112,0.106c1.712,0,3.415-0.043,5.112-0.106    H323.754z M30,482v-24.756c0-43.124,25.836-81.344,65.836-97.422l30.329-11.269c-9.851,16.539-12.937,35.839-8.679,54.777    c4.541,20.191,16.802,37.178,34.529,47.839L202.494,482H30z M167.607,425.54c-0.032-0.02-0.065-0.04-0.098-0.059    c-10.654-6.396-18.024-16.6-20.752-28.731c-2.703-12.019-0.481-24.279,6.258-34.567l10.395-13.943l55.071,108.372L167.607,425.54z     M256,464.223L218.79,391h74.419L256,464.223z M348.591,348.239l10.395,13.943c6.738,10.288,8.961,22.548,6.258,34.565    c-2.728,12.131-10.098,22.335-20.752,28.731c-0.033,0.02-0.065,0.04-0.098,0.059l-50.874,31.072L348.591,348.239z M482,482    H309.506l50.478-30.831c17.727-10.661,29.988-27.648,34.529-47.839c4.144-18.431,1.311-37.197-7.923-53.435l28.289,10.681    C455.654,376.11,482,414.625,482,458.698V482z"></path>
	</g>
</g>
<g>
</g>
<g>
</g>
<g>
</g>
<g>
</g>
<g>
</g>
<g>
</g>
<g>
</g>
<g>
</g>
<g>
</g>
<g>
</g>
<g>
</g>
<g>
</g>
<g>
</g>
<g>
</g>
<g>
</g>
</svg>