<svg xmlns="http://www.w3.org/2000/svg" xmlns:xlink="http://www.w3.org/1999/xlink" id="Capa_1" x="0px" y="0px" viewBox="0 0 512 512" style="enable-background:new 0 0 512 512;" xml:space="preserve">
<g>
	<g>
		<path d="M511.542,381.082c1.689-11.849-1.321-23.648-8.478-33.239l-65.378-89.832c-0.042-0.058-0.085-0.116-0.128-0.173    c-8.443-11.258-21.886-17.98-35.959-17.98h-44.957v-29.971h134.87c8.276,0,14.986-6.71,14.986-14.985c0-5.268,0-114.626,0-119.884    c0-24.789-20.168-44.956-44.957-44.956s-44.957,20.167-44.957,44.956c0,8.276,6.71,14.986,14.986,14.986    s14.985-6.71,14.985-14.986c0-8.263,6.723-14.985,14.986-14.985s14.986,6.722,14.986,14.985v44.957H356.642V92.878    c0-41.315-33.612-74.928-74.928-74.928h-34.251c-20.936-20.972-54.772-23.699-78.893-5.178c-6.564,5.04-7.799,14.448-2.759,21.013    l54.76,71.315c2.421,3.152,5.994,5.214,9.934,5.731c0.65,0.085,1.303,0.127,1.951,0.127c3.283,0,6.495-1.079,9.127-3.1    c18.867-14.487,26.718-38.077,22.134-59.937h17.997c24.789,0,44.957,20.167,44.957,44.957c0,7.667,0,138.999,0,146.981H245.81    l-36.181-50.654c-13.606-19.048-39.933-24.447-59.934-12.288c-4.922,2.992-9.17,6.898-12.574,11.431l-12.198-17.448    c5.154-1.379,10.045-3.675,14.482-6.843c20.172-14.412,24.867-42.545,10.464-62.713l-9.358-13.101    c-6.979-9.791-17.357-16.269-29.221-18.243c-11.859-1.972-23.761,0.79-33.503,7.768c-6.15,4.393-10.852,10.064-14.021,16.392    c-14.185-6.516-31.373-5.488-44.949,4.213C-1.335,112.769-6.041,140.856,8.306,161.02l146.825,209.749    c0.027,0.039,0.055,0.078,0.082,0.117c8.422,11.79,22.099,18.829,36.588,18.829h29.971v91.911h-29.971    c-8.276,0-14.985,6.71-14.985,14.986s6.71,14.986,14.985,14.986h44.957h59.942h44.957c8.276,0,14.985-6.71,14.985-14.986    s-6.709-14.986-14.985-14.986h-29.971v-91.911h37.382l76.436,103.797c0.025,0.035,0.052,0.07,0.078,0.105    c14.68,19.572,42.836,24.072,62.929,8.987c19.858-14.877,23.879-45.093,8.989-64.939l-15.221-20.295    c4.664-1.734,8.455-4.221,11.727-6.677C503.617,403.491,509.845,392.976,511.542,381.082z M232.766,71.77l-31.607-41.163    c10.268-1.332,20.948,2.673,27.69,11.455C235.591,50.843,236.707,62.201,232.766,71.77z M356.641,149.946h119.884v29.971H356.641    V149.946z M95.224,102.141c3.237-2.32,7.194-3.236,11.143-2.579c3.954,0.658,7.412,2.816,9.745,6.088l9.365,13.111    c4.8,6.721,3.231,16.101-3.493,20.905c-6.826,4.875-16.177,3.132-20.909-3.495l-9.364-13.11    C86.911,116.339,88.48,106.96,95.224,102.141z M281.714,481.625h-29.971v-91.911h29.971V481.625z M470.529,478.626    c-6.548,4.915-15.914,3.703-20.94-2.949l-80.882-109.835c-2.824-3.835-7.304-6.099-12.066-6.099H191.801    c-4.812,0-9.358-2.33-12.168-6.235L32.823,143.782c-0.026-0.039-0.054-0.077-0.081-0.115c-4.8-6.721-3.231-16.101,3.498-20.909    c6.698-4.787,16.043-3.238,20.866,3.446c70.145,100.339,84.654,122.686,137.033,196.018c2.78,3.976,5.939,6.8,11.307,7.443    c0.033,0.004,0.066,0.002,0.099,0.006c1.568,0.178-11.603,0.103,173.572,0.103l94.409,125.877    C478.55,462.349,477.089,473.712,470.529,478.626z M476.024,386.714c-7.776,5.838-15.424,1.74-18.974-2.993l-58.45-77.928    c-2.83-3.773-7.272-5.994-11.988-5.994h-0.004H215.033l-56.539-80.877c-1.516-6.122,0.936-12.853,6.765-16.394    c6.668-4.055,15.444-2.253,19.98,4.096l40.663,56.93c2.812,3.938,7.354,6.276,12.194,6.276h163.502    c4.66,0,9.112,2.211,11.928,5.919l65.363,89.811c0.043,0.059,0.086,0.117,0.13,0.175    C483.942,372.299,482.722,381.696,476.024,386.714z"></path>
	</g>
</g>
<g>
</g>
<g>
</g>
<g>
</g>
<g>
</g>
<g>
</g>
<g>
</g>
<g>
</g>
<g>
</g>
<g>
</g>
<g>
</g>
<g>
</g>
<g>
</g>
<g>
</g>
<g>
</g>
<g>
</g>
</svg>