<svg xmlns="http://www.w3.org/2000/svg" xmlns:xlink="http://www.w3.org/1999/xlink" id="Capa_1" x="0px" y="0px" viewBox="0 0 511.999 511.999" style="enable-background:new 0 0 511.999 511.999;" xml:space="preserve">
<g>
	<g>
		<path d="M511.982,135.884c-0.006-0.479-0.036-0.956-0.088-1.431c-4.003-36.431-21.648-70.278-49.685-95.308    C434.073,14.027,398.101,0.192,360.92,0.192c-28.45,0-56.134,8.007-80.061,23.156c-14.895,9.431-34.836,9.425-49.722,0    C207.211,8.199,179.527,0.192,151.077,0.192c-37.181,0-73.152,13.834-101.288,38.953C21.753,64.176,4.109,98.023,0.106,134.453    c-0.052,0.476-0.082,0.953-0.088,1.431c-0.577,41.958,12.972,83.553,38.149,117.123c34.149,45.532,52.957,99.824,52.957,152.873    v38.478c0,37.192,30.257,67.449,67.449,67.449c37.192,0,67.449-30.257,67.449-67.449V398.16c0-16.53,13.448-29.977,29.977-29.977    s29.977,13.448,29.977,29.977v46.198c0,37.192,30.257,67.449,67.449,67.449c37.192,0,67.449-30.257,67.449-67.449V405.88    c0-53.049,18.807-107.341,52.957-152.873C499.009,219.437,512.558,177.842,511.982,135.884z M449.85,235.02    c-38.015,50.688-58.952,111.366-58.952,170.859v38.478c0,20.662-16.809,37.472-37.472,37.472    c-20.662,0-37.472-16.809-37.472-37.472V398.16c0-33.059-26.896-59.955-59.955-59.955s-59.955,26.896-59.955,59.955v46.198    c0,20.662-16.809,37.472-37.472,37.472c-20.662,0-37.472-16.809-37.472-37.472V405.88c0-59.493-20.936-120.173-58.953-170.859    c-21.077-28.103-32.486-62.88-32.165-98C36.947,77.045,89.997,30.17,151.079,30.17c22.763,0,44.902,6.399,64.025,18.506    c24.683,15.629,57.112,15.627,81.792,0c19.123-12.107,41.261-18.506,64.025-18.506c61.082,0,114.132,46.875,121.095,106.85    C482.336,172.141,470.928,206.918,449.85,235.02z"></path>
	</g>
</g>
<g>
	<g>
		<path d="M449.875,137.716c-3.128-21.262-13.819-40.706-30.104-54.752c-16.315-14.069-37.215-21.818-58.85-21.818    c-17.057,0-33.639,4.779-47.951,13.823c-6.998,4.422-9.087,13.679-4.666,20.677c4.422,6.999,13.678,9.087,20.677,4.666    c9.514-6.01,20.559-9.188,31.94-9.188c30.016,0,54.954,21.429,59.294,50.953c1.095,7.451,7.496,12.81,14.811,12.81    c0.725,0,1.46-0.053,2.199-0.162C445.417,153.521,451.079,145.905,449.875,137.716z"></path>
	</g>
</g>
<g>
	<g>
		<path d="M260.417,151.744l-38.45-11.858c-14.222-4.386-25.332-15.495-29.718-29.718l-11.858-38.45    c-1.938-6.284-7.746-10.572-14.323-10.572c-6.577,0-12.386,4.288-14.323,10.572l-11.858,38.45    c-4.386,14.222-15.495,25.332-29.718,29.718l-38.45,11.858c-6.284,1.938-10.572,7.746-10.572,14.323    c0,6.577,4.288,12.386,10.572,14.323l38.45,11.858c14.222,4.386,25.332,15.495,29.718,29.718l11.858,38.45    c1.938,6.284,7.746,10.572,14.323,10.572c6.577,0,12.386-4.288,14.323-10.572l11.858-38.45    c4.386-14.222,15.495-25.332,29.718-29.718l38.45-11.858c6.284-1.938,10.572-7.746,10.572-14.323    C270.989,159.49,266.701,153.683,260.417,151.744z M166.067,206.321c-7.597-18.196-22.057-32.656-40.254-40.254    c18.196-7.597,32.656-22.057,40.254-40.254c7.597,18.196,22.057,32.656,40.254,40.254    C188.124,173.665,173.664,188.125,166.067,206.321z"></path>
	</g>
</g>
<g>
</g>
<g>
</g>
<g>
</g>
<g>
</g>
<g>
</g>
<g>
</g>
<g>
</g>
<g>
</g>
<g>
</g>
<g>
</g>
<g>
</g>
<g>
</g>
<g>
</g>
<g>
</g>
<g>
</g>
</svg>